# xmcd
#
# Track frame offsets: 
#        150
#        9426
#        18184
#        29333
#        39825
#        51410
#        60000
#        68544
#        79289
#        89251
#        100347
#        109285
#        119350
#        129074
#        138451
#        148433
#        158241
#        167874
#        179419
#        189886
#
# Disc length: 2645 seconds
#
# Revision: 3
# Processed by: cddbd v1.5.2PL0 Copyright (c) Steve Scherf et al.
# Submitted via: ExactAudioCopyFreeDBPlugin 1.0
#
DISCID=050a5314
DTITLE=Johnny Horton - Rockin' Rollin' Johnny Horton
DYEAR=1991
DGENRE=Country/Rock
TTITLE0=Ole Slew Foot
TTITLE1=Sal's Got A Sugarlip
TTITLE2=Cherokee Boogie
TTITLE3=The First Train Headin' South
TTITLE4=Sleepy Eyed John
TTITLE5=All Grown Up
TTITLE6=Got The Bull By The Horns
TTITLE7=The Electrified Donkey
TTITLE8=Honky Tonk Man
TTITLE9=I'm Ready If You're Willing
TTITLE10=I'm A One Woman Man
TTITLE11=Sugar Coated Baby
TTITLE12=I Don't Like I Did
TTITLE13=I'm Coming Home
TTITLE14=Honky Tonk Mind (The Woman I Need)
TTITLE15=Tell My Baby I Love Her
TTITLE16=Let's Take The Long Way Home
TTITLE17=Lover's Rock
TTITLE18=Honky Tonk Hardwood Floor
TTITLE19=The Wild One
EXTD=
EXTT0=
EXTT1=
EXTT2=
EXTT3=
EXTT4=
EXTT5=
EXTT6=
EXTT7=
EXTT8=
EXTT9=
EXTT10=
EXTT11=
EXTT12=
EXTT13=
EXTT14=
EXTT15=
EXTT16=
EXTT17=
EXTT18=
EXTT19=
PLAYORDER=
